<?xml version="1.0" standalone="no"?>
<!DOCTYPE svg PUBLIC "-//W3C//DTD SVG 20010904//EN"
 "http://www.w3.org/TR/2001/REC-SVG-20010904/DTD/svg10.dtd">
<svg version="1.0" xmlns="http://www.w3.org/2000/svg"
 width="512.000000pt" height="512.000000pt" viewBox="0 0 512.000000 512.000000"
 preserveAspectRatio="xMidYMid meet">
<metadata>
Created by potrace 1.14, written by Peter Selinger 2001-2017
</metadata>
<g transform="translate(0.000000,512.000000) scale(0.100000,-0.100000)"
fill="#000000" stroke="none">
<path d="M2365 3771 c-10 -25 -184 -496 -220 -596 -18 -49 -115 -313 -215
-585 -100 -272 -225 -612 -277 -755 -52 -143 -115 -313 -140 -378 -25 -65 -43
-121 -40 -123 6 -6 426 -8 431 -3 3 4 134 391 140 414 1 6 19 62 40 126 l38
115 438 0 c241 -1 440 -3 442 -6 2 -3 50 -147 107 -320 57 -173 107 -319 111
-324 5 -4 104 -9 220 -10 l212 -1 -6 25 c-2 14 -10 39 -17 55 -7 17 -13 32
-13 35 -1 3 -7 19 -13 35 -7 17 -49 131 -93 255 -45 124 -88 239 -96 257 -8
17 -14 34 -14 39 0 4 -13 41 -29 83 -16 42 -54 144 -85 226 -30 83 -143 391
-251 685 -108 294 -216 587 -239 650 l-43 115 -191 1 c-168 2 -192 0 -197 -15z
m501 -1383 c5 -17 -14 -18 -305 -18 l-311 0 9 23 c5 12 71 209 146 437 76 228
142 426 147 440 9 21 31 -37 159 -420 82 -245 152 -453 155 -462z"/>
</g>
</svg>
